<?xml version="1.0" standalone="no"?>
<!DOCTYPE svg PUBLIC "-//W3C//DTD SVG 20010904//EN"
 "http://www.w3.org/TR/2001/REC-SVG-20010904/DTD/svg10.dtd">
<svg version="1.0" xmlns="http://www.w3.org/2000/svg"
 width="566.000000pt" height="150.000000pt" viewBox="0 0 566.000000 150.000000"
 preserveAspectRatio="xMidYMid meet">
<metadata>
Created by potrace 1.16, written by Peter Selinger 2001-2019
</metadata>
<g transform="translate(0.000000,150.000000) scale(0.100000,-0.100000)"
fill="#000000" stroke="none">
<path d="M895 1448 c21 -31 171 -63 196 -41 8 7 24 13 34 13 24 0 55 -28 55 -50 0 -9 29
-35 65 -59 36 -24 65 -47 65 -52 0 -22 -24 -15 -77 21 -70 49 -89 46 -95 -13
-7 -61 13 -80 72 -73 l45 7 -24 -21 c-13 -11 -31 -20 -41 -20 -10 0 -25 -11
-34 -25 -11 -17 -26 -25 -45 -25 -38 0 -91 -64 -91 -109 0 -30 -21 -51 -54
-51 -22 0 -46 29 -46 56 0 36 -54 79 -100 81 -31 1 -49 -8 -111 -57 -52 -40
-75 -65 -76 -81 -3 -32 -32 -51 -66 -45 -37 8 -97 -30 -97 -62 0 -12 -7 -25
-15 -28 -11 -4 -15 -20 -14 -53 1 -91 3 -90 168 85 84 90 160 164 169 164 8 0
53 -37 99 -82 46 -46 85 -84 87 -86 3 -2 162 158 333 337 l99 104 -45 43 c-34
31 -42 44 -31 48 8 2 78 19 155 36 77 17 148 33 158 36 12 4 17 0 17 -12 0
-26 -61 -308 -69 -316 -3 -4 -27 10 -52 32 l-46 39 -119 -122 c-66 -68 -182
-187 -258 -266 l-139 -143 -96 97 -95 97 -147 -153 -147 -154 21 -30 c40 -57
55 -58 93 -8 20 26 27 46 26 71 -3 42 12 62 47 62 33 0 111 75 111 108 0 12 4
22 9 22 19 0 35 -34 36 -75 1 -67 15 -77 104 -72 42 2 91 8 108 13 42 12 113
95 113 134 0 29 18 50 44 54 9 1 29 15 46 31 34 33 36 31 15 -19 l-15 -36 69
0 c43 0 72 5 79 13 15 18 -6 118 -29 139 -25 22 -24 29 10 62 28 27 29 28 40
8 10 -19 85 -41 97 -29 3 3 -8 27 -25 53 -22 36 -27 52 -19 61 8 10 19 0 45
-42 22 -35 41 -55 54 -55 10 0 26 -11 35 -25 13 -20 14 -29 4 -57 -15 -41 3
-148 25 -148 15 0 25 -22 25 -56 0 -19 -8 -29 -34 -39 -34 -15 -76 -61 -76
-87 0 -7 -16 -44 -34 -81 -26 -54 -33 -77 -29 -107 5 -32 2 -40 -19 -54 -18
-12 -32 -14 -49 -8 -18 7 -39 2 -89 -21 -36 -17 -67 -34 -68 -39 -2 -5 -11
-16 -20 -24 -24 -25 -17 -99 14 -129 28 -28 30 -52 8 -83 -32 -47 -108 -20
-107 39 1 54 -105 183 -183 225 -18 10 -36 24 -38 31 -3 7 12 50 34 96 22 45
40 85 40 90 0 4 -25 -9 -55 -29 -37 -25 -55 -44 -55 -57 0 -47 -71 -77 -100
-42 -18 22 -168 9 -193 -16 -36 -38 -107 -7 -94 42 9 33 -40 94 -98 123 -58
28 -169 43 -190 26 -19 -16 -76 -8 -89 12 -7 12 -7 26 0 45 15 41 -28 179 -67
215 -16 15 -29 36 -29 47 0 22 25 51 45 51 7 0 33 37 58 83 35 64 44 89 40
115 -7 42 11 62 56 62 28 1 54 14 124 66 48 36 87 72 87 81 0 21 39 63 58 63
9 0 23 -7 33 -16 17 -15 26 -15 114 0 53 9 107 16 120 16 13 0 29 10 39 25 22
33 68 34 91 3z m1381 -273 c77 -23 80 -27 65 -74 -6 -23 -14 -41 -16 -41 -2 0
-27 9 -55 20 -107 42 -220 17 -220 -49 0 -41 24 -57 135 -86 55 -15 113 -34
128 -43 96 -57 86 -204 -17 -263 -36 -21 -53 -24 -146 -23 -105 0 -148 11
-207 49 -21 14 -21 16 -6 52 8 21 17 40 18 42 2 1 30 -9 62 -24 118 -57 253
-39 253 33 0 38 -23 57 -95 76 -159 43 -197 62 -220 107 -8 15 -15 49 -15 75
0 73 47 130 128 154 45 14 155 11 208 -5z m433 -126 c24 -5 56 -19 71 -29 50
-36 60 -74 63 -242 l2 -153 -47 -3 c-43 -3 -48 -1 -48 17 0 12 -4 21 -10 21
-5 0 -10 -4 -10 -9 0 -20 -89 -44 -140 -38 -91 11 -139 51 -142 120 -3 95 44
130 187 137 100 5 100 5 97 30 -1 14 -14 35 -28 48 -32 28 -102 29 -163 2 -24
-11 -45 -19 -46 -18 -8 10 -36 70 -33 73 2 1 19 11 38 20 66 34 133 42 209 24z
m566 0 c97 -26 149 -102 149 -214 0 -80 -23 -135 -74 -178 -61 -52 -175 -60
-246 -18 l-34 20 0 -99 0 -100 -55 0 -55 0 0 295 0 295 50 0 c43 0 50 -3 50
-20 0 -22 10 -26 27 -9 16 16 84 38 118 39 17 0 48 -5 70 -11z m793 -26 c56
-34 91 -97 94 -168 l3 -50 -172 -3 c-106 -1 -173 -6 -173 -12 0 -6 15 -27 33
-47 29 -31 41 -37 88 -40 52 -5 85 3 121 29 15 10 22 8 48 -17 29 -27 29 -29
12 -48 -35 -39 -74 -51 -162 -51 -89 0 -129 13 -178 58 -94 85 -87 251 15 335
70 58 190 64 271 14z m504 25 c47 -14 93 -63 107 -115 6 -21 11 -100 11 -175
l0 -138 -55 0 -55 0 0 138 c0 118 -3 141 -20 169 -36 60 -134 52 -177 -14 -14
-22 -19 -53 -21 -160 l-4 -133 -49 0 -49 0 0 215 0 215 50 0 c48 0 50 -1 50
-27 l0 -26 23 20 c44 41 117 53 189 31z m989 -19 c70 -39 82 -76 87 -256 l4
-153 -56 0 c-50 0 -56 2 -56 21 0 18 -2 19 -15 6 -43 -44 -169 -47 -226 -6
-74 52 -73 154 2 207 16 11 55 18 129 22 105 5 105 5 102 30 -1 14 -14 35 -28
48 -33 29 -108 30 -166 2 -23 -11 -42 -19 -43 -17 -6 6 -35 67 -35 71 0 7 66
37 103 47 56 14 151 4 198 -22z m-1931 -194 l0 -215 -55 0 -55 0 0 215 0 215
55 0 55 0 0 -215z m1296 150 c26 -36 50 -65 53 -65 3 0 28 30 55 65 l49 65 59
0 60 0 -28 -37 c-15 -21 -30 -40 -33 -43 -4 -3 -27 -33 -52 -66 l-47 -61 84
-112 84 -111 -63 0 -63 0 -53 71 c-29 39 -56 67 -60 63 -4 -5 -29 -37 -55 -71
l-47 -63 -61 0 -60 0 28 38 c15 20 52 67 81 104 29 37 53 71 53 75 0 5 -34 53
-75 107 -41 54 -75 100 -75 102 0 2 27 4 59 4 l59 0 48 -65z m-2432 -637 c38
-53 5 -118 -59 -118 -65 0 -100 75 -55 120 29 29 94 27 114 -2z m1188 5 c23
-20 24 -80 1 -105 -26 -29 -87 -24 -112 8 -12 15 -21 34 -21 44 0 10 9 29 21
44 24 31 81 36 111 9z m1768 -3 c26 -26 26 -74 -1 -101 -16 -16 -30 -19 -67
-17 l-47 3 -3 54 c-2 29 -1 60 2 67 9 23 92 18 116 -6z m179 -6 c12 -15 21
-34 21 -44 0 -10 -9 -29 -21 -44 -43 -54 -132 -24 -132 44 0 68 89 98 132 44z"/>
<path d="M653 1372 c-51 -9 -93 -20 -93 -26 0 -18 85 -66 117 -66 23 0 41 11
77 50 25 27 46 52 46 55 0 8 -46 4 -147 -13z"/>
<path d="M743 583 c-31 -6 -29 -13 12 -53 49 -48 101 -46 180 6 l58 39 -39 7
c-42 7 -175 8 -211 1z"/>
<path d="M1278 487 c-21 -22 -53 -136 -41 -148 6 -6 32 0 76 20 76 34 84 52
40 92 -54 48 -60 51 -75 36z"/>
<path d="M2600 803 c-28 -10 -50 -36 -50 -58 0 -35 31 -55 84 -55 39 0 53 5
77 29 19 20 29 40 29 60 l0 31 -62 -1 c-35 0 -70 -3 -78 -6z"/>
<path d="M3123 948 c-42 -30 -57 -67 -51 -129 7 -68 46 -109 109 -116 53 -5
86 11 116 56 79 117 -61 268 -174 189z"/>
<path d="M3872 954 c-19 -13 -52 -63 -52 -79 0 -3 54 -5 120 -5 137 0 146 6
86 66 -29 29 -41 34 -83 34 -28 0 -58 -7 -71 -16z"/>
<path d="M5390 799 c-29 -12 -40 -26 -40 -56 0 -31 37 -53 88 -53 55 0 102 41
102 89 l0 31 -62 -1 c-35 0 -74 -5 -88 -10z"/>
</g>
</svg>
